<svg width="48" height="48" viewBox="0 0 48 48" fill="none" xmlns="http://www.w3.org/2000/svg">
<g clip-path="url(#clip0_99_467)">
<circle cx="24" cy="24" r="24" transform="matrix(-1 0 0 1 48 0)" fill="#F8F8F8"/>
<path fill-rule="evenodd" clip-rule="evenodd" d="M29.1786 12.8214C28.5778 12.2206 27.6324 12.1744 26.9786 12.6828L26.8216 12.8214L16.8216 22.8214C16.2208 23.4222 16.1745 24.3676 16.6829 25.0214L16.8216 25.1784L26.8216 35.1784C27.4724 35.8293 28.5277 35.8293 29.1786 35.1784C29.7794 34.5776 29.8256 33.6322 29.3172 32.9784L29.1786 32.8214L20.3584 23.9999L29.1786 15.1784C29.7794 14.5776 29.8256 13.6322 29.3172 12.9784L29.1786 12.8214Z" fill="#005AEB"/>
</g>
<defs>
<clipPath id="clip0_99_467">
<rect width="48" height="48" fill="white" transform="matrix(-1 0 0 1 48 0)"/>
</clipPath>
</defs>
</svg>
