<svg width="67" height="24" viewBox="0 0 67 24" fill="none" xmlns="http://www.w3.org/2000/svg">
<path d="M6.27 23V7.49H0.12V2H19.5V7.49H13.35V23H6.27ZM30.2972 23V20.09L29.8172 19.31V13.79C29.8172 12.99 29.5672 12.38 29.0672 11.96C28.5872 11.54 27.7972 11.33 26.6972 11.33C25.9572 11.33 25.2072 11.45 24.4472 11.69C23.6872 11.91 23.0372 12.22 22.4972 12.62L20.3372 8.15C21.2972 7.55 22.4472 7.09 23.7872 6.77C25.1272 6.45 26.4372 6.29 27.7172 6.29C30.5372 6.29 32.7172 6.92 34.2572 8.18C35.8172 9.44 36.5972 11.44 36.5972 14.18V23H30.2972ZM25.6472 23.3C24.3072 23.3 23.1872 23.07 22.2872 22.61C21.3872 22.15 20.7072 21.54 20.2472 20.78C19.7872 20 19.5572 19.14 19.5572 18.2C19.5572 17.14 19.8272 16.24 20.3672 15.5C20.9072 14.76 21.7272 14.2 22.8272 13.82C23.9472 13.44 25.3572 13.25 27.0572 13.25H30.4772V16.52H28.1372C27.4172 16.52 26.8872 16.64 26.5472 16.88C26.2272 17.1 26.0672 17.44 26.0672 17.9C26.0672 18.28 26.2072 18.6 26.4872 18.86C26.7872 19.1 27.1872 19.22 27.6872 19.22C28.1472 19.22 28.5672 19.1 28.9472 18.86C29.3472 18.6 29.6372 18.2 29.8172 17.66L30.6872 19.67C30.4272 20.89 29.8772 21.8 29.0372 22.4C28.1972 23 27.0672 23.3 25.6472 23.3ZM39.5273 23V0.739999H46.3073V23H39.5273ZM58.1325 23.3C56.2525 23.3 54.5825 22.94 53.1225 22.22C51.6625 21.5 50.5125 20.5 49.6725 19.22C48.8525 17.92 48.4425 16.44 48.4425 14.78C48.4425 13.12 48.8525 11.65 49.6725 10.37C50.5125 9.09 51.6625 8.09 53.1225 7.37C54.5825 6.65 56.2525 6.29 58.1325 6.29C60.1325 6.29 61.8425 6.72 63.2625 7.58C64.6825 8.44 65.6625 9.63 66.2025 11.15L60.9525 13.73C60.6125 12.97 60.1925 12.42 59.6925 12.08C59.2125 11.74 58.6825 11.57 58.1025 11.57C57.6025 11.57 57.1325 11.69 56.6925 11.93C56.2725 12.17 55.9325 12.53 55.6725 13.01C55.4325 13.47 55.3125 14.06 55.3125 14.78C55.3125 15.5 55.4325 16.1 55.6725 16.58C55.9325 17.06 56.2725 17.42 56.6925 17.66C57.1325 17.9 57.6025 18.02 58.1025 18.02C58.6825 18.02 59.2125 17.85 59.6925 17.51C60.1925 17.17 60.6125 16.62 60.9525 15.86L66.2025 18.44C65.6625 19.96 64.6825 21.15 63.2625 22.01C61.8425 22.87 60.1325 23.3 58.1325 23.3Z" fill="#131313"/>
</svg>
