<svg width="40" height="40" fill="none" xmlns="http://www.w3.org/2000/svg"><rect width="40" height="40" rx="20" fill="#131313"/><path fill-rule="evenodd" clip-rule="evenodd" d="M9.054 19.789c5.83-2.54 9.718-4.215 11.663-5.024 5.555-2.31 6.709-2.712 7.46-2.725.166-.003.536.038.776.233.202.164.258.386.285.541.026.156.06.51.033.788-.301 3.162-1.603 10.837-2.266 14.379-.28 1.498-.832 2-1.367 2.05-1.161.107-2.043-.767-3.168-1.505-1.76-1.154-2.755-1.872-4.463-2.998-1.975-1.301-.695-2.016.43-3.185.295-.306 5.412-4.96 5.511-5.383.013-.053.024-.25-.093-.354-.117-.104-.29-.068-.414-.04-.176.04-2.988 1.899-8.436 5.576-.798.548-1.521.815-2.169.801-.714-.015-2.088-.403-3.109-.735-1.252-.407-2.248-.623-2.161-1.314.045-.36.54-.729 1.488-1.105Z" fill="#fff"/></svg>