<svg width="40" height="40" fill="none" xmlns="http://www.w3.org/2000/svg"><rect width="40" height="40" rx="20" fill="currentColor"/><path d="m7.868 31.636 1.715-6.228a11.907 11.907 0 0 1-1.61-6.014c0-6.63 5.423-12.022 12.08-12.022 3.232 0 6.268 1.252 8.545 3.523a11.893 11.893 0 0 1 3.534 8.505c0 6.631-5.423 12.022-12.086 12.022h-.005c-2.022 0-4.01-.507-5.777-1.464l-6.396 1.678Zm6.704-3.852.365.22a10.106 10.106 0 0 0 5.11 1.394h.005c5.533 0 10.04-4.48 10.04-9.992a9.92 9.92 0 0 0-2.937-7.07 9.988 9.988 0 0 0-7.103-2.928c-5.533-.006-10.04 4.474-10.04 9.987 0 1.885.527 3.724 1.535 5.316l.238.38-1.014 3.685 3.8-.992Z" fill="#fff"/><path d="m7.868 31.636 1.715-6.228a11.907 11.907 0 0 1-1.61-6.014c0-6.63 5.423-12.022 12.08-12.022 3.232 0 6.268 1.252 8.545 3.523a11.893 11.893 0 0 1 3.534 8.505c0 6.631-5.423 12.022-12.086 12.022h-.005c-2.022 0-4.01-.507-5.777-1.464l-6.396 1.678Zm6.704-3.852.365.22a10.106 10.106 0 0 0 5.11 1.394h.005c5.533 0 10.04-4.48 10.04-9.992a9.92 9.92 0 0 0-2.937-7.07 9.988 9.988 0 0 0-7.103-2.928c-5.533-.006-10.04 4.474-10.04 9.987 0 1.885.527 3.724 1.535 5.316l.238.38-1.014 3.685 3.8-.992Z" fill="url(#a)"/><path fill-rule="evenodd" clip-rule="evenodd" d="M17.034 14.367c-.226-.502-.463-.514-.678-.52-.174-.005-.376-.005-.579-.005-.203 0-.527.075-.805.375s-1.055 1.026-1.055 2.508c0 1.476 1.084 2.906 1.234 3.108.15.202 2.092 3.332 5.157 4.538 2.549 1.003 3.07.801 3.62.75.55-.053 1.785-.727 2.04-1.43.249-.704.249-1.304.174-1.43-.076-.128-.279-.203-.58-.352-.301-.15-1.784-.877-2.062-.98-.278-.099-.481-.15-.678.15-.203.299-.782.974-.956 1.175-.174.202-.353.225-.655.075-.301-.15-1.274-.467-2.427-1.493-.898-.796-1.506-1.782-1.68-2.082-.174-.3-.018-.46.133-.61.133-.133.301-.352.452-.525.15-.173.203-.3.301-.502.099-.202.052-.375-.023-.525-.075-.144-.666-1.632-.933-2.225Z" fill="#fff"/><defs><linearGradient id="a" x1="20.003" y1="31.633" x2="20.003" y2="7.372" gradientUnits="userSpaceOnUse"><stop stop-color="#F9F9F9"/><stop offset="1" stop-color="#fff"/></linearGradient></defs></svg>